<?xml version="1.0" encoding="UTF-8"?>
<svg version="1.1" xmlns="http://www.w3.org/2000/svg" width="1250" height="209">
<path d="M0 0 C0.82886719 0.57363281 1.65773438 1.14726562 2.51171875 1.73828125 C16.25622177 11.90458287 25.017222 27.28074439 28 44 C28 44.99 28 45.98 28 47 C27.0821875 47.18175781 26.164375 47.36351562 25.21875 47.55078125 C17.16367951 49.14821384 17.16367951 49.14821384 9.375 51.6875 C6 53 6 53 2 53 C1.85304688 52.17757812 1.70609375 51.35515625 1.5546875 50.5078125 C-0.65308001 39.51972824 -4.86215994 29.93390832 -14 23 C-24.91617847 16.31441969 -35.32595868 13.57134487 -48 16 C-58.45222883 18.9579277 -66.85956289 24.93736164 -72.9375 34 C-73.66123587 35.3140169 -74.3503257 36.64783236 -75 38 C-75.47566406 38.9590625 -75.47566406 38.9590625 -75.9609375 39.9375 C-79.95458042 49.61017642 -79.20468573 61.69398825 -75.4609375 71.27734375 C-71.23593694 79.15120843 -66.03788936 85.37574327 -59.625 91.5625 C-58.88894531 92.28501953 -58.15289062 93.00753906 -57.39453125 93.75195312 C-55.60311553 95.50847114 -53.80504946 97.25751446 -52 99 C-53.39347376 102.15204981 -55.02485079 104.26171773 -57.4765625 106.671875 C-58.146875 107.33574219 -58.8171875 107.99960938 -59.5078125 108.68359375 C-60.55582031 109.70646484 -60.55582031 109.70646484 -61.625 110.75 C-62.33140625 111.44738281 -63.0378125 112.14476563 -63.765625 112.86328125 C-65.50598703 114.58012488 -67.25084981 116.29211832 -69 118 C-72.15419791 116.61294948 -74.18280447 115.01643476 -76.5390625 112.515625 C-77.19688721 111.83008545 -77.85471191 111.1445459 -78.5324707 110.43823242 C-79.22300537 109.71611572 -79.91354004 108.99399902 -80.625 108.25 C-90.81282422 97.86949826 -100.56205201 91.1320574 -115.5625 90.625 C-126.04291078 90.98228673 -135.57488719 94.9490329 -143.265625 102.109375 C-147.49612837 106.65324899 -150.71398249 111.22479786 -153 117 C-153.4125 118.03125 -153.825 119.0625 -154.25 120.125 C-156.43884801 131.43404805 -155.59633998 142.61627562 -149.421875 152.53515625 C-142.29257894 162.15328315 -133.09904186 169.1298011 -121 171 C-108.58393497 172.21374995 -97.78533844 168.53515779 -88 161 C-84.84777783 158.16406543 -81.88421233 155.17243256 -78.9375 152.125 C-78.16728516 151.34125 -77.39707031 150.5575 -76.60351562 149.75 C-74.72854192 147.8400889 -72.8610099 145.92350292 -71 144 C-67.84795019 145.39347376 -65.73828227 147.02485079 -63.328125 149.4765625 C-62.66425781 150.146875 -62.00039063 150.8171875 -61.31640625 151.5078125 C-60.29353516 152.55582031 -60.29353516 152.55582031 -59.25 153.625 C-58.55261719 154.33140625 -57.85523438 155.0378125 -57.13671875 155.765625 C-55.41987512 157.50598703 -53.70788168 159.25084981 -52 161 C-58.1263465 174.87334787 -76.07845029 188.19515463 -89.953125 193.60546875 C-107.28438406 199.86135397 -126.34387297 200.15277182 -143.24072266 192.33447266 C-161.77647561 183.19109982 -173.29377524 169.04994992 -180.16796875 149.71484375 C-184.72081782 132.80731505 -182.64014625 114.68927335 -174.8125 99.125 C-171.26336102 93.00292444 -167.02067424 87.96100579 -162 83 C-161.31292969 82.29101562 -160.62585938 81.58203125 -159.91796875 80.8515625 C-146.58958574 67.94355521 -129.10575555 63.90580634 -111.109375 63.8671875 C-108 64 -108 64 -105 65 C-105.03480469 63.69546875 -105.06960938 62.3909375 -105.10546875 61.046875 C-105.46042911 42.52504327 -102.14604966 25.82453113 -89.5625 11.5 C-88.06356244 9.97811952 -86.54334812 8.4768245 -85 7 C-84.31421875 6.29488281 -83.6284375 5.58976562 -82.921875 4.86328125 C-61.38132055 -16.07892446 -24.00839521 -17.21896829 0 0 Z " fill="#E50026" transform="translate(417,11)"/>
<path d="M0 0 C30.69 0 61.38 0 93 0 C93 5.28 93 10.56 93 16 C88.87781087 19.78934156 86.33318363 21.64872148 81.5 24 C80.40300781 24.59554687 79.30601562 25.19109375 78.17578125 25.8046875 C75.47472788 27.26090758 72.75690065 28.65342873 70 30 C70.86165771 30.00616333 70.86165771 30.00616333 71.74072266 30.01245117 C74.36982647 30.04555997 76.99666529 30.11621693 79.625 30.1875 C80.52863281 30.19330078 81.43226563 30.19910156 82.36328125 30.20507812 C88.65086631 30.41160464 91.66183386 31.37402672 96 36 C97.34642757 38.69285515 97.14948999 40.80804355 97.17700195 43.82324219 C97.19625481 45.6558963 97.19625481 45.6558963 97.21589661 47.52557373 C97.22406524 48.86600336 97.23150874 50.20643759 97.23828125 51.546875 C97.24439454 52.55891872 97.24439454 52.55891872 97.25063133 53.59140778 C97.2714944 57.16445103 97.28579346 60.73745588 97.29516602 64.31054688 C97.30621432 67.99378739 97.34059415 71.67642106 97.38033772 75.35944748 C97.40654157 78.19741911 97.41486126 81.0352472 97.41844749 83.87332916 C97.42566184 85.88852044 97.45208771 87.90361347 97.47883606 89.91864014 C97.45192347 101.2738067 97.45192347 101.2738067 93 106 C87.82369826 110.6944238 83.24541542 110.49555036 76.625 110.25 C75.69816406 110.23195313 74.77132812 110.21390625 73.81640625 110.1953125 C71.54318565 110.14844197 69.27214593 110.08285525 67 110 C66.49528803 108.23050388 65.99639315 106.45934777 65.5 104.6875 C65.2215625 103.70136719 64.943125 102.71523437 64.65625 101.69921875 C64 99 64 99 64 96 C67.63 95.67 71.26 95.34 75 95 C75.66 92.69 76.32 90.38 77 88 C70.73 88 64.46 88 58 88 C58.061875 89.835625 58.12375 91.67125 58.1875 93.5625 C58.17483247 98.93353204 57.82613302 102.41971545 55 107 C50.17118931 111.67791036 46.37665698 110 39 110 C39 102.74 39 95.48 39 88 C32.4 88 25.8 88 19 88 C19.103125 90.35125 19.20625 92.7025 19.3125 95.125 C19.47210207 103.50679869 19.47210207 103.50679869 16.6875 106.875 C11.22514944 111.19406789 8.94557495 110 1 110 C1 83.93 1 57.86 1 31 C8.92 30.67 16.84 30.34 25 30 C23.35 28.68 21.7 27.36 20 26 C21.66751148 22.05860922 24.22710649 19.2107188 27 16 C32.56250756 16.71576384 36.4328695 19.61356118 41.0625 22.6015625 C44.23562005 24.47163438 44.23562005 24.47163438 49 23 C56.425 18.545 56.425 18.545 64 14 C32.32 13.505 32.32 13.505 0 13 C0 8.71 0 4.42 0 0 Z M19 45 C19 47.64 19 50.28 19 53 C25.6 53 32.2 53 39 53 C39 50.36 39 47.72 39 45 C32.4 45 25.8 45 19 45 Z M58 45 C58 47.64 58 50.28 58 53 C64.27 53 70.54 53 77 53 C77 50.36 77 47.72 77 45 C70.73 45 64.46 45 58 45 Z M19 66 C19 68.64 19 71.28 19 74 C25.6 74 32.2 74 39 74 C39 71.36 39 68.72 39 66 C32.4 66 25.8 66 19 66 Z M58 66 C58 68.64 58 71.28 58 74 C64.27 74 70.54 74 77 74 C77 71.36 77 68.72 77 66 C70.73 66 64.46 66 58 66 Z " fill="#000000" transform="translate(760,51)"/>
<path d="M0 0 C13.03540626 11.43044633 21.73020844 27.46294726 23.24267578 44.81738281 C24.50161533 65.05968685 18.953652 82.62177001 5.56640625 98.18359375 C-7.87299259 111.95845341 -24.89944045 118.6122333 -44 119.125 C-71.93175689 118.43065124 -88.58971278 102.8551177 -106.9375 83.75 C-103.01461742 79.04658874 -98.92731304 74.60726049 -94.5625 70.3125 C-94.01722656 69.77173828 -93.47195313 69.23097656 -92.91015625 68.67382812 C-91.58826536 67.36353277 -90.26322382 66.05641716 -88.9375 64.75 C-84.93326731 68.02619039 -81.24845984 71.42816531 -77.66088867 75.16137695 C-67.91475252 85.24214438 -57.79847473 91.63744592 -43.375 92.125 C-31.48948036 91.71981183 -20.59763459 86.40007273 -12.46875 77.734375 C-4.90680208 67.93470779 -2.89619267 56.86821403 -3.9375 44.75 C-6.33483416 33.26731421 -12.36530392 24.4865969 -21.9375 17.75 C-32.96418348 11.7565639 -43.26150894 9.93138204 -55.5 13.3125 C-69.15255863 18.00757005 -78.14898332 28.60576943 -87.9375 38.75 C-92.64091126 34.82711742 -97.08023951 30.73981304 -101.375 26.375 C-102.18614258 25.55708984 -102.18614258 25.55708984 -103.01367188 24.72265625 C-104.32396723 23.40076536 -105.63108284 22.07572382 -106.9375 20.75 C-78.98385789 -12.50476072 -38.36456275 -29.42888356 0 0 Z " fill="#E60027" transform="translate(498.9375,90.25)"/>
<path d="M0 0 C44.22 0 88.44 0 134 0 C134 4.62 134 9.24 134 14 C110.57 14 87.14 14 63 14 C62.01 16.97 61.02 19.94 60 23 C59.34576805 24.6903123 58.67097024 26.37303203 57.96289062 28.04150391 C57.4071637 29.35799423 57.4071637 29.35799423 56.84020996 30.70108032 C56.44950317 31.61698944 56.05879639 32.53289856 55.65625 33.4765625 C55.24588501 34.44604828 54.83552002 35.41553406 54.41271973 36.41439819 C53.11168506 39.48596946 51.80591331 42.55550025 50.5 45.625 C49.62338652 47.69257634 48.74708162 49.76028353 47.87109375 51.828125 C44.59469349 59.5581336 41.30723357 67.28312167 38 75 C59.12 75 80.24 75 102 75 C100.02 68.07 98.04 61.14 96 54 C94.63053715 48.34195613 93.28374567 42.67810584 92 37 C99.92 37 107.84 37 116 37 C118.53577183 43.76205821 120.88529182 50.51146962 123.0715332 57.3894043 C123.48112239 58.66817323 123.89711558 59.94490915 124.31958008 61.21948242 C129.92353649 78.14469501 129.92353649 78.14469501 128 85 C125.03621622 88.29603926 122.67815139 89.27049739 118.37696838 89.5146637 C116.48659886 89.5414344 114.59583883 89.54612525 112.70532227 89.53344727 C111.67059784 89.54206284 110.63587341 89.55067841 109.5697937 89.55955505 C106.15174292 89.58224491 102.73451003 89.57547005 99.31640625 89.56640625 C96.93895728 89.57164062 94.56151038 89.57791642 92.18406677 89.58518982 C87.20163195 89.59559977 82.21948263 89.59102396 77.23706055 89.57641602 C70.85335019 89.55923145 64.47054015 89.58271745 58.08693027 89.61790562 C53.17724141 89.63987081 48.26776823 89.63844009 43.35804558 89.6301403 C41.00452627 89.62932024 38.65099121 89.63619408 36.29751778 89.65091133 C33.00580718 89.66833911 29.71571776 89.65382735 26.42407227 89.63110352 C25.45297012 89.64279572 24.48186798 89.65448792 23.4813385 89.66653442 C19.02506787 89.60397237 15.95745185 89.4461874 12.41099548 86.58555603 C8.82864055 82.74383196 8.72081011 80.49542259 8.78570557 75.425354 C9.12053716 71.6357775 10.39791719 68.50730533 11.9296875 65.0546875 C12.23596573 64.32962006 12.54224396 63.60455261 12.85780334 62.85751343 C13.84830366 60.52315774 14.86113866 58.19929172 15.875 55.875 C16.5619977 54.26848858 17.24761818 52.66138753 17.93188477 51.05371094 C19.62289897 47.09158477 21.33237832 43.1377935 23.04998779 39.18713379 C23.93401391 37.15191426 24.81407408 35.11505093 25.69189453 33.07714844 C28.43607719 26.70644305 31.21055346 20.35135521 34 14 C22.78 14 11.56 14 0 14 C0 9.38 0 4.76 0 0 Z " fill="#000000" transform="translate(881,91)"/>
<path d="M0 0 C7.01086321 -0.09901273 14.02131773 -0.17153827 21.03271484 -0.21972656 C23.41690157 -0.23981893 25.80103915 -0.26709781 28.18505859 -0.30175781 C31.61568338 -0.35037859 35.04565555 -0.37299312 38.4765625 -0.390625 C39.53928375 -0.41127014 40.602005 -0.43191528 41.69692993 -0.45318604 C47.78815914 -0.45502527 51.40152111 -0.13629674 56 4 C59.30323032 8.95484547 59.12350418 13.50304459 59.11352539 19.3605957 C59.11367142 20.08309006 59.11381744 20.80558441 59.1139679 21.54997253 C59.11327422 23.92527322 59.10550745 26.30049435 59.09765625 28.67578125 C59.09579013 30.32773292 59.09436714 31.97968515 59.09336853 33.63163757 C59.08955861 37.97007792 59.07974139 42.30848455 59.06866455 46.64691162 C59.0584176 51.07775415 59.05386388 55.50860215 59.04882812 59.93945312 C59.03811771 68.62631752 59.02105966 77.31315456 59 86 C62.96 85.01 62.96 85.01 67 84 C67 89.28 67 94.56 67 100 C62 102 62 102 59 102 C59.01571045 102.63502441 59.0314209 103.27004883 59.04760742 103.92431641 C59.1102859 106.8244523 59.14909417 109.72444524 59.1875 112.625 C59.21263672 113.62402344 59.23777344 114.62304688 59.26367188 115.65234375 C59.33214531 122.54533666 58.52537778 126.90437563 54.0625 132.375 C51 134 51 134 39 134 C39 125.42 39 116.84 39 108 C36.29167969 108.7940625 33.58335937 109.588125 30.79296875 110.40625 C28.17207381 111.17170074 25.55078003 111.93577058 22.92944336 112.69970703 C21.10643 113.23179124 19.28383541 113.76531236 17.46166992 114.30029297 C14.84402213 115.06855442 12.22491698 115.83165326 9.60546875 116.59375 C8.78974899 116.83436157 7.97402924 117.07497314 7.1335907 117.32287598 C4.00242293 118.22953669 1.27767201 119 -2 119 C-2 113.72 -2 108.44 -2 103 C1.465 102.505 1.465 102.505 5 102 C5 74.94 5 47.88 5 20 C11.27 20 17.54 20 24 20 C24 24.62 24 29.24 24 34 C28.95 34 33.9 34 39 34 C39 27.73 39 21.46 39 15 C26.13 15 13.26 15 0 15 C0 10.05 0 5.1 0 0 Z M24 48 C24 52.95 24 57.9 24 63 C28.95 63 33.9 63 39 63 C39 58.05 39 53.1 39 48 C34.05 48 29.1 48 24 48 Z M24 77 C24 83.27 24 89.54 24 96 C25.918125 95.525625 27.83625 95.05125 29.8125 94.5625 C30.89144531 94.29566406 31.97039063 94.02882813 33.08203125 93.75390625 C35.0740843 93.23922588 37.04811524 92.65062825 39 92 C39 87.05 39 82.1 39 77 C34.05 77 29.1 77 24 77 Z " fill="#000000" transform="translate(565,48)"/>
<path d="M0 0 C5.83096952 3.10157953 10.86601899 6.85556181 16 11 C13.10349478 15.4530384 10.01187281 19.68387273 6.75 23.875 C6.29109375 24.46796875 5.8321875 25.0609375 5.359375 25.671875 C4.24136829 27.115967 3.12093832 28.5581824 2 30 C6.95 30 11.9 30 17 30 C17 34.62 17 39.24 17 44 C8.75 44 0.5 44 -8 44 C-8 50.27 -8 56.54 -8 63 C0.25 63 8.5 63 17 63 C17 67.62 17 72.24 17 77 C6.605 77.495 6.605 77.495 -4 78 C-2.78183594 80.701875 -1.56367187 83.40375 -0.30859375 86.1875 C0.89644823 88.86188553 2.10119158 91.53640539 3.3059082 94.2109375 C4.13079295 96.04180662 4.95597847 97.87254027 5.78149414 99.703125 C8.52991525 105.79810384 11.27038866 111.89657298 14 118 C14.36180359 118.80824219 14.72360718 119.61648437 15.09637451 120.44921875 C16.09864926 122.69336831 17.09535973 124.93988907 18.08984375 127.1875 C18.38734024 127.85289795 18.68483673 128.5182959 18.99134827 129.20385742 C21 133.76908863 21 133.76908863 21 136 C14.4 136 7.8 136 1 136 C-5.9085638 122.57392318 -12.00671126 108.85616533 -18 95 C-18.34780518 95.8470752 -18.69561035 96.69415039 -19.05395508 97.56689453 C-20.35487961 100.73219582 -21.65784104 103.89664287 -22.9621582 107.06054688 C-23.52449088 108.42577373 -24.08602776 109.79132867 -24.64672852 111.15722656 C-25.45636461 113.12914025 -26.26892805 115.09982633 -27.08203125 117.0703125 C-27.81256714 118.84559326 -27.81256714 118.84559326 -28.55786133 120.65673828 C-31.22353466 126.83647936 -33.18291821 131.26044742 -39 135 C-41.83308533 135.55587617 -44.50258044 135.48131308 -47.375 135.3125 C-48.47908203 135.27866211 -48.47908203 135.27866211 -49.60546875 135.24414062 C-51.40453842 135.18572927 -53.20254753 135.09606337 -55 135 C-52.94247636 128.65680343 -50.69372542 122.4079788 -48.3125 116.1796875 C-47.79683472 114.82534103 -47.79683472 114.82534103 -47.27075195 113.44363403 C-46.54892043 111.54915402 -45.82617049 109.65502371 -45.10253906 107.76123047 C-44.00073715 104.87692971 -42.90250549 101.99128789 -41.8046875 99.10546875 C-41.09917021 97.25512753 -40.39344802 95.40486443 -39.6875 93.5546875 C-39.36241455 92.70035126 -39.0373291 91.84601501 -38.70239258 90.96578979 C-38.39197021 90.15449615 -38.08154785 89.34320251 -37.76171875 88.50732422 C-37.49319092 87.80388885 -37.22466309 87.10045349 -36.94799805 86.3757019 C-35.6912182 83.22618669 -34.33578386 80.11682902 -33 77 C-39.27 77 -45.54 77 -52 77 C-52 72.38 -52 67.76 -52 63 C-44.74 63 -37.48 63 -30 63 C-30 56.73 -30 50.46 -30 44 C-37.26 44 -44.52 44 -52 44 C-52 39.38 -52 34.76 -52 30 C-46.72 30 -41.44 30 -36 30 C-36.88945313 28.53046875 -37.77890625 27.0609375 -38.6953125 25.546875 C-39.83938409 23.61508199 -40.98256748 21.68276278 -42.125 19.75 C-42.71410156 18.78191406 -43.30320312 17.81382813 -43.91015625 16.81640625 C-44.45800781 15.88183594 -45.00585938 14.94726562 -45.5703125 13.984375 C-46.08352051 13.12553711 -46.59672852 12.26669922 -47.12548828 11.38183594 C-48 9 -48 9 -47.25097656 6.76977539 C-45.03452388 3.63412638 -42.47073685 2.61568784 -39 1 C-36.0868325 1.17444117 -35.05730753 1.9475652 -32.88671875 3.93359375 C-27.82488551 9.69671117 -23.23375584 15.60171946 -19 22 C-21.81399549 24.91020046 -24.45134451 27.02852473 -28 29 C-24.4441542 29.76557356 -21.53511314 29.94408986 -18 29 C-14.55848918 25.58004192 -12.39158964 21.54080559 -10.0625 17.3125 C-9.41732422 16.20970703 -8.77214844 15.10691406 -8.10742188 13.97070312 C-6.90798096 11.91363088 -5.72337614 9.84778239 -4.55883789 7.77075195 C-3.0848175 5.15075862 -1.55871073 2.57030491 0 0 Z " fill="#000000" transform="translate(682,45)"/>
<path d="M0 0 C0.82886719 0.57363281 1.65773438 1.14726562 2.51171875 1.73828125 C16.25622177 11.90458287 25.017222 27.28074439 28 44 C28 44.99 28 45.98 28 47 C27.0821875 47.18175781 26.164375 47.36351562 25.21875 47.55078125 C17.16367951 49.14821384 17.16367951 49.14821384 9.375 51.6875 C6 53 6 53 2 53 C1.85304688 52.17757812 1.70609375 51.35515625 1.5546875 50.5078125 C-0.65308001 39.51972824 -4.86215994 29.93390832 -14 23 C-24.91617847 16.31441969 -35.32595868 13.57134487 -48 16 C-58.45222883 18.9579277 -66.85956289 24.93736164 -72.9375 34 C-73.66123587 35.3140169 -74.3503257 36.64783236 -75 38 C-75.31710937 38.639375 -75.63421875 39.27875 -75.9609375 39.9375 C-80.04337595 49.82524083 -79.15869506 61.95873041 -75.16796875 71.66796875 C-73.99645614 74.10540115 -73.99645614 74.10540115 -72.30078125 76.67578125 C-71.87152344 77.44277344 -71.44226563 78.20976563 -71 79 C-71.33 79.66 -71.66 80.32 -72 81 C-72.80179687 80.41992188 -73.60359375 79.83984375 -74.4296875 79.2421875 C-82.71387714 73.47626294 -90.80409073 69.99110717 -100.45703125 67.09375 C-104 66 -104 66 -105 65 C-106.70235201 46.41599052 -103.04693236 29.13730041 -91.79296875 14.0390625 C-89.62322927 11.5691314 -87.37470241 9.27234455 -85 7 C-84.31421875 6.29488281 -83.6284375 5.58976562 -82.921875 4.86328125 C-61.38132055 -16.07892446 -24.00839521 -17.21896829 0 0 Z " fill="#D7001F" transform="translate(417,11)"/>
<path d="M0 0 C10.23 0 20.46 0 31 0 C31.02578125 5.07890625 31.0515625 10.1578125 31.078125 15.390625 C31.1032915 18.60812345 31.12962261 21.82552771 31.16015625 25.04296875 C31.20851013 30.14990601 31.25254728 35.25662527 31.27099609 40.36376953 C31.28613992 44.48131052 31.32054412 48.59828126 31.36830902 52.71556854 C31.38314647 54.28638503 31.39104237 55.85728292 31.39188385 57.42816925 C31.39424833 59.62883804 31.42128178 61.82792419 31.45410156 64.02832031 C31.46298401 65.28074524 31.47186646 66.53317017 31.48101807 67.82354736 C31.80263088 70.99629033 31.80263088 70.99629033 33.41479492 73.40161133 C37.43623751 75.88800141 41.26835932 75.57050465 45.90917969 75.54589844 C46.91438156 75.55623611 47.91958344 75.56657379 48.95524597 75.57722473 C52.27761784 75.60672125 55.59938231 75.60815339 58.921875 75.609375 C61.22545539 75.62435197 63.52902503 75.64107808 65.83258057 75.65948486 C71.89557378 75.70322454 77.95842213 75.72317228 84.02154541 75.73822021 C90.2084614 75.75776733 96.3952204 75.79974006 102.58203125 75.83984375 C114.72130582 75.91521768 126.86054538 75.96546576 139 76 C139 80.62 139 85.24 139 90 C123.71839651 90.09265462 108.43682562 90.16400844 93.1550045 90.20724869 C86.0591309 90.22786092 78.96343519 90.25595559 71.86767578 90.30175781 C65.02068012 90.34593318 58.17386946 90.36913385 51.32674026 90.37950897 C48.71363032 90.38690336 46.10053056 90.40134268 43.48749924 90.42292023 C39.8291711 90.45192977 36.17160813 90.45595684 32.51318359 90.45410156 C31.4313681 90.46848267 30.34955261 90.48286377 29.23495483 90.49768066 C23.16530814 90.46434303 19.59374557 90.09755098 15 86 C11.09161104 80.82402543 9.87366963 77.2915135 9.88647461 70.8762207 C9.88655014 69.61513992 9.88662567 68.35405914 9.88670349 67.05476379 C9.89181011 65.67843588 9.89702611 64.30210837 9.90234375 62.92578125 C9.90420914 61.51759389 9.90563247 60.10940589 9.90663147 58.70121765 C9.91044712 54.9973267 9.92026928 51.29347505 9.93133545 47.58959961 C9.94157003 43.80908744 9.94613348 40.02856891 9.95117188 36.24804688 C9.9618924 28.83201335 9.9789574 21.41601218 10 14 C6.7 14 3.4 14 0 14 C0 9.38 0 4.76 0 0 Z " fill="#000000" transform="translate(720,90)"/>
<path d="M0 0 C2.45703125 1.9453125 2.45703125 1.9453125 4.8125 4.125 C5.66199219 4.91003906 6.51148438 5.69507813 7.38671875 6.50390625 C11.32744854 10.2679217 15.18837808 14.10551674 19 18 C17.67288921 20.93917421 16.22499435 23.03110214 13.953125 25.3125 C13.355 25.91320312 12.756875 26.51390625 12.140625 27.1328125 C11.51671875 27.74898437 10.8928125 28.36515625 10.25 29 C9.33734375 29.92425781 9.33734375 29.92425781 8.40625 30.8671875 C1.99927153 37.24678572 -4.13134608 41.70039797 -13.41796875 42.10546875 C-20.18025794 41.82239618 -25.02074152 39.56677553 -30 35 C-34.40383864 29.52410517 -36.40577514 24.37454762 -36.2734375 17.28125 C-35.55435933 11.28208357 -33.2797701 5.75900674 -28.875 1.5625 C-19.8237441 -5.24528222 -9.64909516 -5.41442148 0 0 Z " fill="#E60027" transform="translate(315,123)"/>
<path d="M0 0 C4.9589935 2.9670088 8.37166536 7.05583073 10.9375 12.1875 C12.75997825 21.66438692 11.68075401 28.2192826 6.5625 36.4375 C4.07663874 39.55937099 1.35858761 42.345017 -1.5 45.125 C-2.20705078 45.85138672 -2.91410156 46.57777344 -3.64257812 47.32617188 C-4.32900391 48.00615234 -5.01542969 48.68613281 -5.72265625 49.38671875 C-6.34019775 49.99862061 -6.95773926 50.61052246 -7.59399414 51.2409668 C-9.4375 52.4375 -9.4375 52.4375 -11.46484375 52.30810547 C-13.68221375 51.32949886 -14.99745763 50.26509229 -16.71484375 48.55859375 C-17.60913086 47.67010742 -17.60913086 47.67010742 -18.52148438 46.76367188 C-19.43897461 45.8287793 -19.43897461 45.8287793 -20.375 44.875 C-20.98279297 44.27880859 -21.59058594 43.68261719 -22.21679688 43.06835938 C-28.39834708 36.84679913 -33.47446789 30.41085828 -33.8125 21.375 C-33.7300735 15.14355694 -32.11585817 10.47104276 -28.4375 5.4375 C-20.79423761 -1.87861886 -10.01910656 -4.54354832 0 0 Z " fill="#C70017" transform="translate(389.4375,45.5625)"/>
<path d="M0 0 C4.77401941 4.77401941 6.69233638 10.2749794 7.4375 16.875 C7.12462091 23.49760742 4.68213999 29.8736281 -0.1875 34.4375 C-6.50053732 39.16556199 -12.68233531 40.4597759 -20.4453125 39.71484375 C-28.3769907 37.49542921 -33.37013862 32.00341716 -38.9375 26.25 C-39.71673828 25.45722656 -40.49597656 24.66445312 -41.29882812 23.84765625 C-43.20626112 21.90511713 -45.10629245 19.95590613 -47 18 C-44.79202068 13.02239868 -41.06146051 9.73188407 -37.25 5.9375 C-36.54617188 5.21755859 -35.84234375 4.49761719 -35.1171875 3.75585938 C-24.84751353 -6.5233589 -11.96288024 -9.79790423 0 0 Z " fill="#E60027" transform="translate(471,125)"/>
<path d="M0 0 C35.97 0 71.94 0 109 0 C109 4.62 109 9.24 109 14 C73.03 14 37.06 14 0 14 C0 9.38 0 4.76 0 0 Z " fill="#000000" transform="translate(893,53)"/>
<path d="M0 0 C6.78376359 5.55035203 12.85522968 11.76442027 19 18 C13.44964797 24.78376359 7.23557973 30.85522968 1 37 C-5.78376359 31.44964797 -11.85522968 25.23557973 -18 19 C-12.44964797 12.21623641 -6.23557973 6.14477032 0 0 Z " fill="#E60027" transform="translate(378,123)"/>
<path d="M0 0 C8.32836044 4.81865414 16.08123059 11.63388793 21 20 C21.0625 22.03515625 21.0625 22.03515625 20 24 C17.49609375 26.140625 17.49609375 26.140625 14.4375 28.25 C13.42558594 28.95640625 12.41367187 29.6628125 11.37109375 30.390625 C10.58863281 30.92171875 9.80617188 31.4528125 9 32 C5.38827052 30.52931093 3.65399072 28.63003831 1.328125 25.53515625 C0.66425781 24.65279297 0.00039063 23.77042969 -0.68359375 22.86132812 C-1.36550781 21.93771484 -2.04742188 21.01410156 -2.75 20.0625 C-3.44738281 19.14275391 -4.14476562 18.22300781 -4.86328125 17.27539062 C-10 10.38454776 -10 10.38454776 -10 7 C-7.8125 5.17578125 -7.8125 5.17578125 -5 3.3125 C-3.6078125 2.37857422 -3.6078125 2.37857422 -2.1875 1.42578125 C-1.1046875 0.72001953 -1.1046875 0.72001953 0 0 Z " fill="#000000" transform="translate(732,53)"/>
</svg>
